<svg version="1.1" id="Layer_1" xmlns="http://www.w3.org/2000/svg" xmlns:xlink="http://www.w3.org/1999/xlink" x="0px" y="0px"
	 width="100%" viewBox="0 0 97 107" enable-background="new 0 0 97 107" xml:space="preserve">
<path fill="#000000" opacity="1.000000" stroke="none" 
	d="
M98.000000,32.000000 
	C98.000000,56.666660 97.956337,80.833519 98.065491,104.999687 
	C98.076790,107.500656 97.500198,108.072594 94.999809,108.064720 
	C63.666794,107.965988 32.333359,108.000000 1.000023,108.000000 
	C1.000015,72.333351 1.000015,36.666698 1.000008,1.000025 
	C32.166645,1.000000 63.333519,1.052667 94.499557,0.915240 
	C97.483604,0.902082 98.171951,1.505165 98.089287,4.502394 
	C97.841263,13.495576 98.000000,22.499977 98.000000,32.000000 
z"/>
<path fill="#F87A6E" opacity="1.000000" stroke="none" 
	d="
M46.200111,63.758789 
	C45.507168,69.192947 43.920826,73.538857 39.322792,76.336487 
	C32.172874,80.686768 25.137350,85.226967 17.948393,89.510529 
	C13.073605,92.415184 9.884425,91.443329 4.262416,85.567154 
	C4.925251,73.857491 4.336720,62.446041 4.485263,51.041378 
	C4.595189,42.601704 4.429889,34.159962 4.782414,25.287792 
	C7.107024,20.223963 10.199098,18.611582 15.161476,20.744658 
	C25.084564,25.010098 34.180000,30.759651 42.339970,37.877560 
	C44.461967,39.728565 45.493290,42.335060 46.010204,45.469070 
	C47.097454,51.649364 46.248196,57.508991 46.200111,63.758789 
z"/>
<path fill="#634FF0" opacity="1.000000" stroke="none" 
	d="
M56.083916,80.054398 
	C62.638069,80.275589 68.707359,79.709572 74.791420,80.607513 
	C76.988403,80.931770 78.887840,81.604843 80.292725,82.919731 
	C85.266777,87.575150 89.973923,92.514374 94.847282,97.279503 
	C96.422325,98.819580 96.302719,100.726791 95.732475,102.346329 
	C95.120491,104.084450 93.559212,104.999763 91.415588,104.994194 
	C68.129150,104.933662 44.842476,104.948128 21.555899,104.971817 
	C19.273296,104.974144 17.514153,104.046776 17.147427,101.848137 
	C16.745802,99.440254 16.577236,96.838814 19.279688,95.265266 
	C26.455004,91.087349 33.555180,86.777184 40.790394,82.706512 
	C45.361004,80.135002 50.483131,79.953392 56.083916,80.054398 
z"/>
<path fill="#634EF2" opacity="1.000000" stroke="none" 
	d="
M89.176910,18.812065 
	C88.230103,19.950531 87.458466,20.853638 86.414597,21.885685 
	C83.011551,25.661869 79.025856,28.012405 74.165268,29.763298 
	C66.156258,30.146076 58.546940,29.981733 50.939049,29.974430 
	C46.860584,29.970514 43.300789,28.126499 39.321400,26.244953 
	C38.931396,26.027306 38.992096,26.011461 38.985657,26.042158 
	C38.043373,25.011517 36.898647,24.308271 35.155899,24.030590 
	C34.397987,23.693272 33.982872,23.367928 33.330196,22.918747 
	C32.218990,21.502827 30.939579,20.819988 29.244911,20.189240 
	C29.001148,19.983835 29.006235,19.993477 29.011497,19.995274 
	C27.873766,18.486301 26.168289,17.957979 24.204323,17.212461 
	C23.928644,17.025293 23.989511,17.007887 23.986782,17.039421 
	C22.563200,15.667284 20.700508,14.819518 19.354830,13.302373 
	C18.129803,11.921250 17.771994,10.405489 18.357725,8.698998 
	C19.007748,6.805192 20.305988,5.644864 22.380676,5.521926 
	C23.044029,5.482619 23.710001,5.499323 24.374853,5.500419 
	C46.979240,5.537681 69.583755,5.424120 92.625702,5.752687 
	C93.063332,5.948033 93.003281,5.993263 93.023544,5.961578 
	C93.428703,6.629609 93.888451,7.280053 94.524696,8.287678 
	C95.128304,10.247860 95.099731,11.819984 94.230576,13.701633 
	C94.022202,14.045181 93.998947,13.999744 94.022209,14.010237 
	C92.984482,14.675747 91.822052,15.223075 91.200180,16.791206 
	C91.022316,17.049276 91.001274,16.999001 91.026596,17.009090 
	C90.401604,17.447016 89.701302,17.820288 89.176910,18.812065 
z"/>
<path fill="#F57D73" opacity="1.000000" stroke="none" 
	d="
M54.839432,45.662079 
	C59.834442,41.973328 65.185295,41.935780 69.795967,44.582928 
	C74.098785,47.053337 76.863487,51.215427 76.088692,56.972504 
	C75.525024,61.160686 71.875122,66.381325 67.655113,67.795715 
	C62.777462,69.430527 56.659046,67.513252 53.790222,63.450993 
	C48.741413,56.301868 48.937508,51.927967 54.839432,45.662079 
z"/>
<path fill="#7768DE" opacity="1.000000" stroke="none" 
	d="
M92.859756,5.557484 
	C71.810463,5.961938 50.557594,5.974128 29.304726,5.992795 
	C27.478609,5.994399 25.652044,6.020537 23.826563,6.068559 
	C21.866171,6.120129 20.194344,6.774776 19.434464,8.729004 
	C18.653313,10.737945 19.673008,12.228953 21.064323,13.576580 
	C22.005682,14.488380 22.881905,15.467431 23.885654,16.743679 
	C21.573753,16.755129 19.781244,15.384427 18.159159,13.697193 
	C16.360395,11.826186 16.950777,9.834849 17.654287,7.718040 
	C18.332676,5.676812 19.519739,4.941421 21.691339,4.952600 
	C45.346031,5.074370 69.001175,5.108755 92.859756,5.557484 
z"/>
<path fill="#F9C2BD" opacity="1.000000" stroke="none" 
	d="
M4.611596,25.061888 
	C4.882159,44.744297 5.545170,64.637177 4.414147,84.888496 
	C4.183349,65.259941 4.197856,45.263817 4.611596,25.061888 
z"/>
<path fill="#6E5ED0" opacity="1.000000" stroke="none" 
	d="
M39.067898,26.357096 
	C50.362732,30.355312 62.291164,28.721155 74.532471,28.958710 
	C75.142120,29.142807 75.283035,29.324673 75.268143,29.814472 
	C72.157539,31.917212 68.919815,30.576502 65.390411,30.899792 
	C59.187725,30.037357 53.397636,30.769087 47.236252,30.220356 
	C43.786800,30.065620 41.472965,28.428574 39.067898,26.357096 
z"/>
<path fill="#6A58DA" opacity="1.000000" stroke="none" 
	d="
M75.477905,30.066319 
	C75.092247,29.929100 75.072151,29.735798 75.026627,29.251717 
	C78.480949,26.686129 81.960686,24.411318 85.791397,22.075565 
	C84.674843,27.211460 79.843452,28.075396 75.477905,30.066319 
z"/>
<path fill="#EBEBFF" opacity="1.000000" stroke="none" 
	d="
M47.048695,30.388771 
	C52.682072,30.073622 58.522858,30.156679 64.653442,30.540012 
	C59.047523,30.822517 53.151814,30.804747 47.048695,30.388771 
z"/>
<path fill="#FFE5E5" opacity="1.000000" stroke="none" 
	d="
M46.342510,63.960278 
	C45.931362,58.384212 45.916367,52.591198 45.943130,46.320248 
	C48.090416,51.731239 46.729488,57.766129 46.342510,63.960278 
z"/>
<path fill="#6A58DA" opacity="1.000000" stroke="none" 
	d="
M94.359222,13.900859 
	C93.998657,12.348243 93.975105,10.651303 93.933365,8.531089 
	C94.096870,7.900534 94.278572,7.693255 94.793884,7.730230 
	C96.674797,10.027962 96.492867,11.952465 94.359222,13.900859 
z"/>
<path fill="#7768DE" opacity="1.000000" stroke="none" 
	d="
M24.073204,17.341614 
	C25.935772,16.976875 27.926336,16.963892 28.915756,19.653038 
	C27.101765,19.864292 25.534288,19.018538 24.073204,17.341614 
z"/>
<path fill="#7768DE" opacity="1.000000" stroke="none" 
	d="
M29.115437,20.296019 
	C30.696930,19.988150 32.428127,19.926126 33.029114,22.447567 
	C31.668659,22.306866 30.161972,21.964920 29.115437,20.296019 
z"/>
<path fill="#6E5ED0" opacity="1.000000" stroke="none" 
	d="
M34.974808,24.335655 
	C36.754601,22.799225 37.916668,23.754274 38.895832,25.762524 
	C37.698315,25.599468 36.417412,25.126081 34.974808,24.335655 
z"/>
<path fill="#6A58DA" opacity="1.000000" stroke="none" 
	d="
M91.319290,16.944832 
	C91.036118,15.467709 91.551796,14.275042 93.690285,14.042698 
	C93.235733,14.960615 92.425995,15.900500 91.319290,16.944832 
z"/>
<path fill="#7768DE" opacity="1.000000" stroke="none" 
	d="
M95.029526,7.686475 
	C94.925575,7.995451 94.723656,8.016418 94.218460,8.072599 
	C93.643204,7.581235 93.371239,7.054657 93.071533,6.228986 
	C93.673058,6.419417 94.302307,6.908942 95.029526,7.686475 
z"/>
<path fill="#6A58DA" opacity="1.000000" stroke="none" 
	d="
M89.284760,18.947170 
	C89.189415,18.196207 89.588470,17.508322 90.749817,17.097603 
	C90.557205,17.628431 90.062492,18.237675 89.284760,18.947170 
z"/>
</svg>